<?xml version="1.0" encoding="utf-8"?>
<svg id="master-artboard" style="enable-background:new 0 0 1400 980;" x="0px" y="0px" width="488.2503356933594px" height="399.7540588378906px" viewBox="-192 -214 862 834" xmlns="http://www.w3.org/2000/svg" xmlns:bx="https://boxy-svg.com">
  <rect id="ee-background" x="-198.13" y="-133.563" width="870.197" height="712.472" style="fill: rgb(255, 255, 255); fill-opacity: 0; pointer-events: none;"/>
  <path d="M 98.336 393.906" style="fill-opacity: 1; stroke: rgb(0, 0, 0); stroke-opacity: 1; stroke-width: 10; paint-order: fill;"/>
  <path class="st0" d="M 664.887 222.784 L 664.522 222.784 C 665.448 333.527 623.664 444.563 539.165 529.06 C 500.687 567.539 456.704 597.161 409.753 617.924 C 358.84 559.319 266.835 505.459 154.943 475.287 C 51.91 447.503 -46.646 445.563 -118.973 464.998 C -168.057 392.047 -192.245 307.331 -191.536 222.784 L -191.617 222.784 C -192.211 112.27 -150.402 1.57 -66.19 -82.751 C 101.056 -250.212 372.216 -250.212 539.462 -82.751 C 623.673 1.57 665.481 112.27 664.887 222.784 Z" style="stroke: rgba(0, 0, 0, 0); stroke-width: 0; fill: rgb(12, 9, 13);"/>
  <path class="st0" d="M 665.872 221.295 L -191.55 217.436 C -192.143 106.643 -151.472 -0.476 -67.048 -85.009 C 100.618 -252.892 372.463 -252.892 540.133 -85.008 C 624.553 -0.475 666.469 110.502 665.872 221.295 Z" style="stroke: rgba(0, 0, 0, 0); stroke-width: 0; fill: rgb(255, 189, 19);" transform="matrix(0.988532, 0.151012, -0.151012, 0.988532, 35.780058, -33.303883)" bx:origin="0.5 0.995"/>
  <path d="M 132.79 250.831 C 132.79 272.646 123.652 290.018 105.379 302.944 C 87.092 315.872 64.266 322.336 36.903 322.336 C 9.527 322.336 -12.187 319.454 -28.239 313.692 C -44.303 307.941 -52.336 300.622 -52.336 291.734 C -52.336 282.239 -47.892 276.686 -39.004 275.07 C -38.399 254.872 -38.095 230.887 -38.095 203.119 C -38.095 175.339 -38.399 153.773 -39.004 138.423 C -47.287 134.585 -51.427 129.232 -51.427 122.365 C -51.427 115.498 -48.142 109.687 -41.571 104.934 C -35.012 100.193 -26.987 96.509 -17.492 93.884 C 1.495 88.631 18.26 86.006 32.804 86.006 C 47.347 86.006 60.328 87.972 71.746 91.906 C 83.153 95.849 92.088 101.054 98.552 107.518 C 111.076 120.042 117.337 133.374 117.337 147.513 C 117.337 164.884 109.561 180.133 94.007 193.263 C 105.32 199.524 114.61 207.807 121.882 218.108 C 129.154 228.41 132.79 239.318 132.79 250.831 M 4.929 282.039 C 12.606 283.452 23.464 284.159 37.509 284.159 C 51.541 284.159 63.708 281.178 74.009 275.212 C 84.312 269.259 89.462 260.526 89.462 249.013 C 89.462 240.529 85.274 233.36 76.897 227.501 C 68.508 221.642 59.365 217.704 49.468 215.684 C 38.762 218.513 29.827 219.926 22.662 219.926 C 15.485 219.926 9.069 219.725 3.414 219.32 C 3.818 254.467 4.323 275.372 4.929 282.039 M 76.131 147.815 C 76.131 141.755 72.548 136.302 65.383 131.454 C 58.206 126.606 48.613 124.183 36.6 124.183 C 24.575 124.183 13.716 125.394 4.02 127.818 L 4.02 177.811 C 11.697 177.004 18.719 176.599 25.086 176.599 C 31.443 176.599 38.359 177.407 45.832 179.023 C 52.094 178.215 58.705 175.031 65.669 169.47 C 72.643 163.921 76.131 156.704 76.131 147.815 Z M 293.363 199.02 L 313.664 199.626 C 340.125 199.626 353.355 193.161 353.355 180.235 C 353.355 175.589 351.638 171.55 348.204 168.116 C 344.771 164.681 340.932 162.103 336.691 160.38 C 332.449 158.669 328.612 156.246 325.177 153.108 C 321.745 149.984 320.027 145.997 320.027 141.15 C 320.027 136.302 321.745 132.161 325.177 128.727 C 328.612 125.292 333.762 123.576 340.629 123.576 C 353.558 123.576 365.879 129.381 377.594 140.989 C 389.31 152.61 395.167 166.298 395.167 182.053 C 395.167 197.808 389.364 210.332 377.754 219.623 C 366.134 228.914 351.942 234.269 335.176 235.682 C 336.792 242.146 337.6 248.104 337.6 253.558 C 337.6 271.536 329.776 287.493 314.127 301.43 C 298.468 315.367 278.115 322.336 253.067 322.336 C 228.02 322.336 207.114 314.809 190.348 299.755 C 173.584 284.712 165.2 265.879 165.2 243.256 C 165.2 231.542 167.828 220.074 173.078 208.859 C 178.331 197.653 185.5 187.912 194.59 179.629 C 184.492 167.711 179.44 154.783 179.44 140.846 C 179.44 126.909 184.894 114.285 195.802 102.974 C 206.71 91.661 222.062 86.006 241.856 86.006 C 254.38 86.006 266.049 89.387 276.86 96.147 C 287.66 102.92 293.061 109.787 293.061 116.75 C 293.061 123.724 291.196 128.829 287.464 132.06 C 283.721 135.291 279.528 136.908 274.881 136.908 C 270.237 136.908 264.634 134.835 258.074 130.687 C 251.505 126.553 245.593 124.485 240.341 124.485 C 235.09 124.485 230.599 126.102 226.867 129.333 C 223.124 132.564 221.252 137.46 221.252 144.019 C 221.252 150.59 224.384 156.299 230.646 161.146 C 234.685 160.743 238.321 160.541 241.553 160.541 C 249.431 160.541 255.895 162.507 260.944 166.44 C 265.995 170.385 268.518 175.738 268.518 182.498 C 268.518 189.271 265.791 194.577 260.338 198.415 C 254.885 202.251 249.082 204.171 242.925 204.171 C 236.759 204.171 231.454 203.565 227.01 202.353 C 214.083 211.443 207.619 224.27 207.619 240.832 C 207.619 253.759 211.813 264.162 220.202 272.04 C 228.578 279.917 239.587 283.857 253.227 283.857 C 266.855 283.857 277.461 280.322 285.04 273.252 C 292.61 266.181 296.393 258.507 296.393 250.225 C 296.393 246.388 295.788 242.347 294.575 238.105 C 290.334 241.943 285.641 243.863 280.496 243.863 C 275.34 243.863 270.943 241.943 267.307 238.105 C 263.671 234.269 261.853 229.015 261.853 222.35 C 261.853 215.684 264.783 210.129 270.64 205.685 C 276.498 201.243 284.073 199.02 293.363 199.02 Z M 470.905 288.098 C 470.905 278.403 471.611 258.708 473.026 229.015 C 466.562 215.886 457.674 199.876 446.363 180.984 C 435.051 162.103 426.063 146.652 419.397 134.627 C 412.731 122.613 409.398 113.725 409.398 107.964 C 409.398 102.212 411.168 97.365 414.709 93.42 C 418.238 89.486 422.783 87.521 428.344 87.521 C 433.893 87.521 438.183 88.478 441.213 90.39 C 444.242 92.315 447.473 96.052 450.908 101.601 C 454.34 107.162 457.573 113.073 460.604 119.334 C 472.925 144.987 484.438 166.904 495.144 185.083 C 506.657 164.884 516.05 147.311 523.322 132.363 C 530.593 117.415 535.897 107.162 539.238 101.601 C 542.564 96.052 545.694 92.315 548.63 90.39 C 551.553 88.478 555.688 87.521 561.035 87.521 C 566.393 87.521 570.842 89.588 574.383 93.723 C 577.912 97.87 579.677 102.617 579.677 107.964 C 579.677 113.323 576.243 122.109 569.376 134.323 C 562.507 146.55 553.318 162.103 541.804 180.984 C 530.291 199.876 521.3 215.987 514.838 229.319 C 516.251 256.183 516.959 275.777 516.959 288.098 C 516.959 309.914 509.283 320.82 493.932 320.82 C 478.579 320.82 470.905 309.914 470.905 288.098 Z" style="fill: rgb(252, 252, 242); stroke: rgb(12, 9, 13); stroke-width: 5px; white-space: pre;"/>
</svg>