<?xml version="1.0" encoding="utf-8"?>
<svg id="master-artboard" viewBox="0 0 488.2503356933594 399.7540588378906" version="1.1" xmlns="http://www.w3.org/2000/svg" x="0px" y="0px" style="enable-background:new 0 0 1400 980;" width="488.2503356933594px" height="399.7540588378906px"><defs><style id="ee-google-fonts">@import url(https://fonts.googleapis.com/css?family=Trocchi:400);</style></defs><rect id="ee-background" x="0" y="0" width="488.2503356933594" height="399.7540588378906" style="fill: rgb(255, 255, 255); fill-opacity: 0; pointer-events: none;"/><g transform="matrix(1, 0, 0, 1, -5.768726825714111, -4.944622993469238)"><g transform="matrix(4.899998664855957, 0, 0, 2.00028395652771, -278.23309326171875, -93.11686706542969)"><g id="g-1" transform="matrix(1, 0, 0, 1, 0, 0)">
	<g id="g-2">
		<path class="st0" d="M58,49h100v100H58V49z" style="fill: rgb(255, 189, 20);"/>
	</g>
</g></g><g transform="matrix(4.899998664855957, 0, 0, 2.00028395652771, -278.404296875, 107.24032592773438)"><g id="g-7" transform="matrix(1, 0, 0, 1, 0, 0)">
	<g id="g-8">
		<path class="st0" d="M58,49h100v100H58V49z" style="fill: rgb(12, 9, 13);"/>
	</g>
</g></g><path d="M 6.019999980926514 7.899999618530273 L 8.569999694824219 7.899999618530273 C 9.069999694824219 7.899999618530273 9.550000190734863 7.850000381469727 10.010000228881836 7.75 C 10.470000267028809 7.643333435058594 10.899999618530273 7.486666679382324 11.300000190734863 7.279999732971191 C 11.706666946411133 7.073333740234375 12.026666641235352 6.783333778381348 12.260000228881836 6.409999847412109 C 12.5 6.0366668701171875 12.619999885559082 5.603333473205566 12.619999885559082 5.109999656677246 C 12.619999885559082 4.716666221618652 12.576666831970215 4.369999885559082 12.489999771118164 4.069999694824219 C 12.396666526794434 3.770000457763672 12.273333549499512 3.513333320617676 12.119999885559082 3.3000001907348633 C 11.966666221618652 3.086667060852051 11.760000228881836 2.9033336639404297 11.5 2.75 C 11.233333587646484 2.5966663360595703 10.960000038146973 2.4733333587646484 10.680000305175781 2.380000114440918 C 10.393333435058594 2.293333053588867 10.039999961853027 2.2233333587646484 9.619999885559082 2.1700000762939453 C 9.199999809265137 2.123332977294922 8.793333053588867 2.0900001525878906 8.399999618530273 2.0699996948242188 C 8 2.0500001907348633 7.519999980926514 2.0399999618530273 6.960000038146973 2.0399999618530273 L 6.019999980926514 2.0399999618530273 L 6.019999980926514 7.899999618530273 M 6.019999980926514 16.31999969482422 L 7.420000076293945 16.31999969482422 C 7.946666717529297 16.31999969482422 8.40666675567627 16.31333351135254 8.800000190734863 16.299999237060547 C 9.193333625793457 16.286666870117188 9.59000015258789 16.260000228881836 9.989999771118164 16.219999313354492 C 10.390000343322754 16.18000030517578 10.733333587646484 16.123332977294922 11.020000457763672 16.049999237060547 C 11.300000190734863 15.976666450500488 11.573333740234375 15.883333206176758 11.84000015258789 15.770000457763672 C 12.113333702087402 15.663333892822266 12.333333015441895 15.529999732971191 12.5 15.369999885559082 C 12.673333168029785 15.210000038146973 12.829999923706055 15.020000457763672 12.970000267028809 14.800000190734863 C 13.103333473205566 14.579999923706055 13.199999809265137 14.326666831970215 13.260000228881836 14.039999961853027 C 13.319999694824219 13.760000228881836 13.350000381469727 13.440000534057617 13.350000381469727 13.079999923706055 C 13.350000381469727 12.479999542236328 13.213333129882812 11.94333267211914 12.9399995803833 11.469999313354492 C 12.666666984558105 10.996665954589844 12.300000190734863 10.616666793823242 11.84000015258789 10.329999923706055 C 11.386666297912598 10.043333053588867 10.880000114440918 9.826666831970215 10.319999694824219 9.680000305175781 C 9.760000228881836 9.533333778381348 9.176666259765625 9.460000038146973 8.569999694824219 9.460000038146973 L 6.019999980926514 9.460000038146973 L 6.019999980926514 16.31999969482422 M 0.38999998569488525 18 L 0.38999998569488525 16.31999969482422 L 3.2699999809265137 16.31999969482422 L 3.2699999809265137 2.0399999618530273 L 0.38999998569488525 2.0399999618530273 L 0.38999998569488525 0.3600006103515625 L 8.0600004196167 0.3600006103515625 C 8.58666706085205 0.3600006103515625 9.09666633605957 0.3833332061767578 9.59000015258789 0.43000030517578125 C 10.076666831970215 0.4766674041748047 10.603333473205566 0.5566673278808594 11.170000076293945 0.6700000762939453 C 11.729999542236328 0.7766666412353516 12.239999771118164 0.9366664886474609 12.699999809265137 1.1499996185302734 C 13.15333366394043 1.3700008392333984 13.569999694824219 1.6333332061767578 13.949999809265137 1.9400005340576172 C 14.329999923706055 2.24666690826416 14.626667022705078 2.640000343322754 14.84000015258789 3.119999885559082 C 15.053333282470703 3.5933332443237305 15.15999984741211 4.126667022705078 15.15999984741211 4.720000267028809 C 15.15999984741211 5.720000267028809 14.886666297912598 6.526666641235352 14.34000015258789 7.140000343322754 C 13.793333053588867 7.75333309173584 12.989999771118164 8.213333129882812 11.930000305175781 8.520000457763672 C 13.276666641235352 8.84666633605957 14.306666374206543 9.396666526794434 15.020000457763672 10.170000076293945 C 15.739999771118164 10.94333267211914 16.100000381469727 11.94333267211914 16.100000381469727 13.170000076293945 C 16.100000381469727 13.803333282470703 16.003334045410156 14.373332977294922 15.8100004196167 14.880000114440918 C 15.623332977294922 15.380000114440918 15.380000114440918 15.796667098999023 15.079999923706055 16.1299991607666 C 14.786666870117188 16.463333129882812 14.40666675567627 16.75 13.9399995803833 16.989999771118164 C 13.473333358764648 17.23666763305664 13.023333549499512 17.420000076293945 12.59000015258789 17.540000915527344 C 12.15666675567627 17.66666603088379 11.649999618530273 17.766666412353516 11.069999694824219 17.84000015258789 C 10.489999771118164 17.913333892822266 9.993332862854004 17.959999084472656 9.579999923706055 17.979999542236328 C 9.166666984558105 17.99333381652832 8.693333625793457 18 8.15999984741211 18 L 0.38999998569488525 18 ZM 23.55295181274414 16.31999969482422 C 24.05295181274414 16.31999969482422 24.582950592041016 16.136667251586914 25.14295196533203 15.770000457763672 C 25.709617614746094 15.396666526794434 26.38628387451172 14.836666107177734 27.172950744628906 14.09000015258789 L 24.37295150756836 9.90999984741211 C 23.55295181274414 10.44333267211914 22.939617156982422 10.860000610351562 22.53295135498047 11.15999984741211 C 22.126283645629883 11.453332901000977 21.792951583862305 11.760000228881836 21.53295135498047 12.079999923706055 C 21.272951126098633 12.393333435058594 21.112951278686523 12.680000305175781 21.05295181274414 12.940000534057617 C 20.992950439453125 13.19333267211914 20.96295166015625 13.543333053588867 20.96295166015625 13.989999771118164 C 20.96295166015625 14.623332977294922 21.196285247802734 15.170000076293945 21.66295051574707 15.630000114440918 C 22.12961769104004 16.09000015258789 22.75961685180664 16.31999969482422 23.55295181274414 16.31999969482422 M 26.772951126098633 1.6399993896484375 C 26.07961654663086 1.6399993896484375 25.499618530273438 1.8500003814697266 25.03295135498047 2.270000457763672 C 24.55961799621582 2.683333396911621 24.32295036315918 3.2866668701171875 24.32295036315918 4.079999923706055 C 24.32295036315918 4.760000228881836 24.676284790039062 5.783333778381348 25.382949829101562 7.149999618530273 C 25.536285400390625 7.029999732971191 25.75961685180664 6.863333702087402 26.05295181274414 6.649999618530273 C 26.346282958984375 6.436666488647461 26.57961654663086 6.263333320617676 26.75295066833496 6.130000114440918 C 26.926284790039062 6.00333309173584 27.126285552978516 5.8333330154418945 27.352951049804688 5.619999885559082 C 27.586284637451172 5.413332939147949 27.766284942626953 5.220000267028809 27.89295196533203 5.039999961853027 C 28.012950897216797 4.859999656677246 28.12295150756836 4.649999618530273 28.222949981689453 4.409999847412109 C 28.3162841796875 4.163332939147949 28.362951278686523 3.9166669845581055 28.362951278686523 3.6700000762939453 C 28.362951278686523 3.076666831970215 28.21961784362793 2.5900001525878906 27.932950973510742 2.2100000381469727 C 27.646284103393555 1.8299999237060547 27.25961685180664 1.6399993896484375 26.772951126098633 1.6399993896484375 M 32.672950744628906 18.31999969482422 C 31.946285247802734 18.31999969482422 31.202951431274414 18.100000381469727 30.442951202392578 17.65999984741211 C 29.676284790039062 17.219999313354492 28.966285705566406 16.55666732788086 28.312950134277344 15.670000076293945 C 28.192951202392578 15.770000457763672 27.972949981689453 15.966667175292969 27.652950286865234 16.260000228881836 C 27.332950592041016 16.553333282470703 27.096282958984375 16.76333236694336 26.942951202392578 16.889999389648438 C 26.78295135498047 17.023332595825195 26.542949676513672 17.200000762939453 26.222949981689453 17.420000076293945 C 25.902950286865234 17.639999389648438 25.616283416748047 17.803333282470703 25.362951278686523 17.90999984741211 C 25.109617233276367 18.010000228881836 24.796283721923828 18.10333251953125 24.422950744628906 18.190000534057617 C 24.056283950805664 18.27666664123535 23.672950744628906 18.31999969482422 23.272951126098633 18.31999969482422 C 21.71295166015625 18.31999969482422 20.4896183013916 17.876667022705078 19.602951049804688 16.989999771118164 C 18.722949981689453 16.10333251953125 18.28295135498047 14.960000038146973 18.28295135498047 13.559999465942383 C 18.28295135498047 13.146666526794434 18.329618453979492 12.760000228881836 18.422950744628906 12.399999618530273 C 18.522951126098633 12.046667098999023 18.679616928100586 11.719999313354492 18.89295196533203 11.420000076293945 C 19.09961700439453 11.119999885559082 19.312950134277344 10.853333473205566 19.53295135498047 10.619999885559082 C 19.75295066833496 10.393333435058594 20.03961753845215 10.15666675567627 20.39295196533203 9.90999984741211 C 20.75295066833496 9.66333293914795 21.062950134277344 9.456666946411133 21.32295036315918 9.289999961853027 C 21.589618682861328 9.130000114440918 21.9362850189209 8.923333168029785 22.362951278686523 8.670000076293945 C 22.78295135498047 8.423333168029785 23.116283416748047 8.220000267028809 23.362951278686523 8.0600004196167 C 22.956283569335938 7.399999618530273 22.626283645629883 6.716666221618652 22.37295150756836 6.010000228881836 C 22.119617462158203 5.310000419616699 21.992950439453125 4.74666690826416 21.992950439453125 4.319999694824219 C 21.992950439453125 3.0466670989990234 22.432950973510742 2.010000228881836 23.312950134277344 1.2099990844726562 C 24.1862850189209 0.4033336639404297 25.272951126098633 0 26.572952270507812 0 C 27.672950744628906 0 28.57961654663086 0.32666587829589844 29.292949676513672 0.9799995422363281 C 30.012950897216797 1.6333332061767578 30.37295150756836 2.4733333587646484 30.37295150756836 3.5 C 30.37295150756836 4.033333778381348 30.266284942626953 4.550000190734863 30.05295181274414 5.050000190734863 C 29.839618682861328 5.550000190734863 29.526283264160156 6.023333549499512 29.112951278686523 6.470000267028809 C 28.692951202392578 6.923333168029785 28.266284942626953 7.329999923706055 27.832950592041016 7.689999580383301 C 27.39295196533203 8.050000190734863 26.87295150756836 8.433333396911621 26.272951126098633 8.84000015258789 L 28.812950134277344 12.550000190734863 L 32.62295150756836 7.899999618530273 L 30.28295135498047 7.899999618530273 L 30.28295135498047 6.770000457763672 L 37.02294921875 6.770000457763672 L 37.02294921875 7.899999618530273 L 35.07295227050781 7.899999618530273 L 29.89295196533203 14.09000015258789 C 30.292949676513672 14.789999961853027 30.776283264160156 15.350000381469727 31.34295082092285 15.770000457763672 C 31.909618377685547 16.183332443237305 32.402950286865234 16.389999389648438 32.82295227050781 16.389999389648438 C 33.109619140625 16.389999389648438 33.356285095214844 16.360000610351562 33.562950134277344 16.299999237060547 C 33.7629508972168 16.239999771118164 33.959617614746094 16.116666793823242 34.152950286865234 15.930000305175781 C 34.346282958984375 15.75 34.492950439453125 15.466667175292969 34.59294891357422 15.079999923706055 C 34.69295120239258 14.693333625793457 34.742950439453125 14.203332901000977 34.742950439453125 13.610000610351562 L 34.742950439453125 11.930000305175781 L 36.28295135498047 11.930000305175781 L 36.28295135498047 12.90999984741211 C 36.28295135498047 13.816666603088379 36.229618072509766 14.586666107177734 36.12295150756836 15.220000267028809 C 36.01628494262695 15.84666633605957 35.832950592041016 16.40333366394043 35.57295227050781 16.889999389648438 C 35.312950134277344 17.3700008392334 34.94295120239258 17.726667404174805 34.46295166015625 17.959999084472656 C 33.97628402709961 18.200000762939453 33.379615783691406 18.31999969482422 32.672950744628906 18.31999969482422 ZM 45.86308288574219 11.030000686645508 L 40.80308151245117 2.0399999618530273 L 38.413082122802734 2.0399999618530273 L 38.413082122802734 0.3600006103515625 L 46.253082275390625 0.3600006103515625 L 46.253082275390625 2.0399999618530273 L 43.573081970214844 2.0399999618530273 L 47.5330810546875 9.319999694824219 L 51.60308074951172 2.0399999618530273 L 48.993080139160156 2.0399999618530273 L 48.993080139160156 0.3600006103515625 L 56.093082427978516 0.3600006103515625 L 56.093082427978516 2.0399999618530273 L 53.883079528808594 2.0399999618530273 L 48.633079528808594 11.09000015258789 L 48.633079528808594 16.31999969482422 L 51.313079833984375 16.31999969482422 L 51.313079833984375 18 L 43.0230827331543 18 L 43.0230827331543 16.31999969482422 L 45.86308288574219 16.31999969482422 L 45.86308288574219 11.030000686645508 Z" transform="matrix(4.465438365936279, 0, 0, 4.465438365936279, 120.34100341796875, 165.2182159423828)" style="fill: rgb(252, 252, 242); white-space: pre; stroke: rgb(12, 9, 13); paint-order: stroke; stroke-width: 2;"/></g><path d="M 621.1429443359375 431.71435546875" style="fill-opacity: 1; stroke: rgb(0, 0, 0); stroke-opacity: 1; stroke-width: 10; paint-order: fill;" transform="matrix(1, 0, 0, 1, -454.801899433136, -135.7618989944458)"/></svg>